<svg id="Layer_1" data-name="Layer 1" xmlns="http://www.w3.org/2000/svg" viewBox="0 0 250 100"><defs><style>.cls-1{fill:none;stroke:#fff;stroke-miterlimit:10;stroke-width:2px;}.cls-2{fill:#fff;}</style></defs><polygon class="cls-1" points="70.89 55.34 9.97 55.34 23.08 43.49 57.77 43.49 70.89 55.34"/><polygon class="cls-1" points="57.77 32.22 23.09 32.22 9.97 43.49 70.89 43.49 57.77 32.22"/><polygon class="cls-1" points="57.77 55.34 23.09 55.34 9.97 67.78 70.89 67.78 57.77 55.34"/><path class="cls-2" d="M85.77,38.85h11.7c5,0,7.25,2.46,7.25,5.44a4.66,4.66,0,0,1-3.15,4.51,5.09,5.09,0,0,1,3.92,4.89c0,4-3,6.29-8.21,6.29H85.77Zm10.62,8.27c2.3,0,3-.91,3-2.19,0-1.59-1.21-2.24-3-2.24H90.82v4.43Zm-5.57,9h5.79c2,0,3.48-.58,3.48-2.67,0-1.69-1.15-2.56-3.38-2.56H90.82Z"/><path class="cls-2" d="M126.45,51.06H114.66v4.81h13.11L127.18,60H109.53V38.85h17.56V43H114.66v4h11.79Z"/><path class="cls-2" d="M131.58,38.85h5.13v17h11.82L147.86,60H131.58Z"/><path class="cls-2" d="M151.38,38.85h5.12v17h11.83L167.66,60H151.38Z"/><path class="cls-2" d="M188.1,51.06H176.31v4.81h13.11L188.83,60H171.18V38.85h17.56V43H176.31v4H188.1Z"/><path class="cls-2" d="M206.73,38.85V60H201.6V38.85Z"/><path class="cls-2" d="M217.46,42.93H210V38.85h20v4.08h-7.41V60h-5.13Z"/></svg>